<svg width="1733" height="385" viewBox="0 0 1733 385" fill="none" xmlns="http://www.w3.org/2000/svg">
<path d="M218.216 229.488C214.803 228.165 213.779 225.819 215.144 222.448L245.608 147.44C246.888 144.624 248.893 143.216 251.624 143.216H251.88C254.653 143.344 256.531 144.752 257.512 147.44L288.488 222.448C289.853 225.819 288.872 228.165 285.544 229.488C282.173 230.811 279.827 229.829 278.504 226.544L271.592 209.776H231.72L225.128 226.544C223.805 229.872 221.501 230.853 218.216 229.488ZM235.944 199.024H267.176L251.24 160.24L235.944 199.024ZM304.008 230C300.424 230 298.632 228.208 298.632 224.624V170.48C298.632 166.896 300.424 165.104 304.008 165.104C307.592 165.104 309.384 166.896 309.384 170.48V172.592C313.907 167.6 320.563 165.104 329.352 165.104H332.936C341.469 165.104 347.784 167.152 351.88 171.248C355.976 175.344 358.024 181.659 358.024 190.192V224.624C358.024 228.208 356.232 230 352.648 230C349.064 230 347.272 228.208 347.272 224.624V190.192C347.272 184.603 346.248 180.827 344.2 178.864C342.195 176.859 338.44 175.856 332.936 175.856H329.352C324.232 175.856 319.773 176.453 315.976 177.648C312.179 178.8 309.981 180.635 309.384 183.152V224.624C309.384 228.208 307.592 230 304.008 230ZM397.718 230C389.227 230 382.913 227.952 378.774 223.856C374.678 219.76 372.63 213.488 372.63 205.04V190.192C372.63 181.616 374.678 175.301 378.774 171.248C382.913 167.152 389.227 165.104 397.718 165.104H408.214C416.747 165.104 423.062 167.152 427.158 171.248C431.254 175.344 433.302 181.659 433.302 190.192V204.912C433.302 213.403 431.254 219.717 427.158 223.856C423.062 227.952 416.747 230 408.214 230H397.718ZM383.382 205.04C383.382 210.544 384.385 214.299 386.39 216.304C388.395 218.267 392.171 219.248 397.718 219.248H408.214C413.803 219.248 417.579 218.245 419.542 216.24C421.547 214.235 422.55 210.459 422.55 204.912V190.192C422.55 184.603 421.547 180.827 419.542 178.864C417.579 176.859 413.803 175.856 408.214 175.856H397.718C394.006 175.856 391.105 176.283 389.014 177.136C386.966 177.947 385.515 179.397 384.662 181.488C383.809 183.536 383.382 186.437 383.382 190.192V205.04ZM454.523 230C450.939 230 449.147 228.208 449.147 224.624V170.48C449.147 166.896 450.939 165.104 454.523 165.104C458.107 165.104 459.899 166.896 459.899 170.48V172.592C464.422 167.6 471.078 165.104 479.867 165.104H483.451C491.984 165.104 498.299 167.152 502.395 171.248C506.491 175.344 508.539 181.659 508.539 190.192V224.624C508.539 228.208 506.747 230 503.163 230C499.579 230 497.787 228.208 497.787 224.624V190.192C497.787 184.603 496.763 180.827 494.715 178.864C492.71 176.859 488.955 175.856 483.451 175.856H479.867C474.747 175.856 470.288 176.453 466.491 177.648C462.694 178.8 460.496 180.635 459.899 183.152V224.624C459.899 228.208 458.107 230 454.523 230ZM543.369 255.6C537.182 255.6 532.553 254.043 529.481 250.928C526.452 247.856 524.937 243.227 524.937 237.04C524.937 233.456 526.729 231.664 530.313 231.664C533.897 231.664 535.689 233.456 535.689 237.04C535.689 240.24 536.158 242.331 537.097 243.312C538.078 244.336 540.169 244.848 543.369 244.848H568.201C571.358 244.848 573.428 244.336 574.409 243.312C575.39 242.331 575.881 240.24 575.881 237.04V220.784C573.321 224.624 570.334 227.12 566.921 228.272C563.55 229.424 559.881 230 555.913 230H549.641C541.193 230 534.964 227.995 530.953 223.984C526.942 219.973 524.937 213.787 524.937 205.424V170.48C524.937 166.896 526.729 165.104 530.313 165.104C533.897 165.104 535.689 166.896 535.689 170.48V205.424C535.689 210.8 536.649 214.448 538.569 216.368C540.532 218.288 544.222 219.248 549.641 219.248H555.913C562.91 219.248 567.988 218.117 571.145 215.856C574.302 213.552 575.881 210.075 575.881 205.424V170.48C575.881 166.896 577.673 165.104 581.257 165.104C584.841 165.104 586.633 166.896 586.633 170.48V237.04C586.633 243.227 585.097 247.856 582.025 250.928C578.953 254.043 574.345 255.6 568.201 255.6H543.369ZM676.577 165.104C684.641 165.104 690.422 167.003 693.921 170.8C697.462 174.597 699.233 180.891 699.233 189.68V224.624C699.233 228.208 697.441 230 693.857 230C690.273 230 688.481 228.208 688.481 224.624V189.68C688.481 184.816 687.542 181.296 685.665 179.12C683.83 176.944 680.801 175.856 676.577 175.856H671.329C666.465 175.856 662.988 176.944 660.897 179.12C658.806 181.296 657.761 184.816 657.761 189.68V224.624C657.761 228.208 655.969 230 652.385 230C648.801 230 647.009 228.208 647.009 224.624V189.68C647.009 184.816 646.07 181.296 644.193 179.12C642.358 176.944 639.329 175.856 635.105 175.856H629.857C624.993 175.856 621.516 176.944 619.425 179.12C617.334 181.296 616.289 184.816 616.289 189.68V224.624C616.289 228.208 614.497 230 610.913 230C607.329 230 605.537 228.208 605.537 224.624V170.48C605.537 166.896 607.329 165.104 610.913 165.104C614.497 165.104 616.289 166.896 616.289 170.48V173.424C618.55 170.48 621.025 168.368 623.713 167.088C626.444 165.765 629.686 165.104 633.441 165.104H635.105C640.396 165.104 644.556 165.851 647.585 167.344C650.614 168.795 652.918 171.163 654.497 174.448C656.758 171.077 659.148 168.688 661.665 167.28C664.225 165.829 667.446 165.104 671.329 165.104H676.577ZM738.873 230C730.382 230 724.068 227.952 719.929 223.856C715.833 219.76 713.785 213.488 713.785 205.04V190.192C713.785 181.616 715.833 175.301 719.929 171.248C724.068 167.152 730.382 165.104 738.873 165.104H749.369C757.902 165.104 764.217 167.152 768.313 171.248C772.409 175.344 774.457 181.659 774.457 190.192V204.912C774.457 213.403 772.409 219.717 768.313 223.856C764.217 227.952 757.902 230 749.369 230H738.873ZM724.537 205.04C724.537 210.544 725.54 214.299 727.545 216.304C729.55 218.267 733.326 219.248 738.873 219.248H749.369C754.958 219.248 758.734 218.245 760.697 216.24C762.702 214.235 763.705 210.459 763.705 204.912V190.192C763.705 184.603 762.702 180.827 760.697 178.864C758.734 176.859 754.958 175.856 749.369 175.856H738.873C735.161 175.856 732.26 176.283 730.169 177.136C728.121 177.947 726.67 179.397 725.817 181.488C724.964 183.536 724.537 186.437 724.537 190.192V205.04ZM843.038 165.104C846.622 165.104 848.414 166.896 848.414 170.48V224.624C848.414 228.208 846.622 230 843.038 230C839.454 230 837.662 228.208 837.662 224.624V222.512C833.139 227.504 826.483 230 817.694 230H814.11C805.619 230 799.305 227.952 795.166 223.856C791.07 219.717 789.022 213.403 789.022 204.912V170.48C789.022 166.896 790.814 165.104 794.398 165.104C797.982 165.104 799.774 166.896 799.774 170.48V204.912C799.774 210.459 800.777 214.235 802.782 216.24C804.83 218.245 808.606 219.248 814.11 219.248H817.694C822.814 219.248 827.273 218.651 831.07 217.456C834.91 216.261 837.107 214.427 837.662 211.952V170.48C837.662 166.896 839.454 165.104 843.038 165.104ZM882.604 230C877.185 230 872.897 228.891 869.74 226.672C866.583 224.411 864.556 221.04 863.66 216.56C863.361 214.768 863.703 213.36 864.684 212.336C865.708 211.312 867.116 210.8 868.908 210.8C870.657 210.8 871.916 211.248 872.684 212.144C873.495 212.997 874.156 214.299 874.668 216.048C875.18 217.328 876.033 218.181 877.228 218.608C878.465 219.035 880.257 219.248 882.604 219.248H903.596C906.924 219.248 909.164 218.715 910.316 217.648C911.468 216.539 912.044 214.256 912.044 210.8C912.044 207.387 911.468 205.125 910.316 204.016C909.164 202.907 906.924 202.352 903.596 202.352H882.988C876.844 202.352 872.215 200.795 869.1 197.68C865.985 194.565 864.428 189.936 864.428 183.792C864.428 177.52 865.943 172.848 868.972 169.776C872.044 166.661 876.716 165.104 882.988 165.104H902.956C912.983 165.104 918.913 169.328 920.748 177.776C921.089 179.568 920.748 180.955 919.724 181.936C918.7 182.917 917.292 183.408 915.5 183.408C913.836 183.408 912.599 182.981 911.788 182.128C910.977 181.232 910.337 179.995 909.868 178.416C909.356 177.392 908.567 176.709 907.5 176.368C906.476 176.027 904.961 175.856 902.956 175.856H882.988C879.745 175.856 877.633 176.347 876.652 177.328C875.671 178.309 875.18 180.464 875.18 183.792C875.18 186.864 875.692 188.933 876.716 190C877.783 191.067 879.873 191.6 882.988 191.6H903.596C909.996 191.6 914.796 193.2 917.996 196.4C921.196 199.6 922.796 204.4 922.796 210.8C922.796 217.243 921.196 222.064 917.996 225.264C914.796 228.421 909.996 230 903.596 230H882.604ZM943.318 230C939.734 230 937.942 228.208 937.942 224.624V148.592C937.942 145.008 939.734 143.216 943.318 143.216H989.27C992.854 143.216 994.646 145.008 994.646 148.592C994.646 152.176 992.854 153.968 989.27 153.968H948.694V180.848H974.166C977.75 180.848 979.542 182.64 979.542 186.224C979.542 189.808 977.75 191.6 974.166 191.6H948.694V219.248H989.27C992.854 219.248 994.646 221.04 994.646 224.624C994.646 228.208 992.854 230 989.27 230H943.318ZM1003.42 228.72C1000.6 226.544 1000.22 224.027 1002.27 221.168L1021.21 194.48L1005.47 173.936C1003.21 171.12 1003.55 168.645 1006.49 166.512C1009.26 164.251 1011.74 164.549 1013.92 167.408L1028.76 186.736L1043.36 167.408C1045.49 164.464 1048.01 164.123 1050.91 166.384C1053.72 168.517 1054.06 171.035 1051.93 173.936L1035.48 195.568L1055 221.04C1057.09 223.899 1056.8 226.416 1054.11 228.592C1051.21 230.853 1048.69 230.512 1046.56 227.568L1028.06 203.44L1010.97 227.44C1008.84 230.384 1006.32 230.811 1003.42 228.72ZM1095.35 230C1086.9 230 1080.67 227.995 1076.66 223.984C1072.65 219.973 1070.65 213.787 1070.65 205.424V175.856H1064.37C1060.79 175.856 1059 174.064 1059 170.48C1059 166.896 1060.79 165.104 1064.37 165.104H1070.65V155.76C1070.65 152.176 1072.44 150.384 1076.02 150.384C1079.61 150.384 1081.4 152.176 1081.4 155.76V165.104H1096.12C1099.7 165.104 1101.49 166.896 1101.49 170.48C1101.49 174.064 1099.7 175.856 1096.12 175.856H1081.4V205.424C1081.4 210.843 1082.38 214.512 1084.34 216.432C1086.3 218.309 1089.97 219.248 1095.35 219.248C1097.01 219.248 1098.31 219.675 1099.25 220.528C1100.23 221.381 1100.73 222.747 1100.73 224.624C1100.73 228.208 1098.93 230 1095.35 230ZM1116.46 201.968V205.04C1116.46 210.544 1117.46 214.299 1119.47 216.304C1121.47 218.267 1125.25 219.248 1130.79 219.248H1141.29C1145.64 219.248 1148.86 218.843 1150.95 218.032C1153.04 217.221 1154.43 215.792 1155.11 213.744C1155.58 212.123 1156.22 210.885 1157.03 210.032C1157.89 209.179 1159.17 208.752 1160.87 208.752C1162.67 208.752 1164.03 209.221 1164.97 210.16C1165.91 211.099 1166.21 212.464 1165.87 214.256C1164.93 219.547 1162.41 223.493 1158.31 226.096C1154.22 228.699 1148.54 230 1141.29 230H1130.79C1122.3 230 1115.99 227.952 1111.85 223.856C1107.75 219.76 1105.71 213.488 1105.71 205.04V190.192C1105.71 181.531 1107.75 175.173 1111.85 171.12C1115.99 167.024 1122.3 165.019 1130.79 165.104H1141.29C1149.82 165.104 1156.14 167.152 1160.23 171.248C1164.33 175.301 1166.38 181.616 1166.38 190.192V196.592C1166.38 200.176 1164.59 201.968 1161 201.968H1116.46ZM1130.79 175.856C1125.25 175.771 1121.47 176.731 1119.47 178.736C1117.46 180.741 1116.46 184.56 1116.46 190.192V191.216H1155.63V190.192C1155.63 184.603 1154.62 180.827 1152.62 178.864C1150.65 176.859 1146.88 175.856 1141.29 175.856H1130.79ZM1187.6 230C1184.01 230 1182.22 228.208 1182.22 224.624V170.48C1182.22 166.896 1184.01 165.104 1187.6 165.104C1191.18 165.104 1192.97 166.896 1192.97 170.48V172.592C1197.5 167.6 1204.15 165.104 1212.94 165.104H1216.53C1225.06 165.104 1231.37 167.152 1235.47 171.248C1239.57 175.344 1241.61 181.659 1241.61 190.192V224.624C1241.61 228.208 1239.82 230 1236.24 230C1232.65 230 1230.86 228.208 1230.86 224.624V190.192C1230.86 184.603 1229.84 180.827 1227.79 178.864C1225.78 176.859 1222.03 175.856 1216.53 175.856H1212.94C1207.82 175.856 1203.36 176.453 1199.57 177.648C1195.77 178.8 1193.57 180.635 1192.97 183.152V224.624C1192.97 228.208 1191.18 230 1187.6 230ZM1274.52 230C1269.11 230 1264.82 228.891 1261.66 226.672C1258.5 224.411 1256.48 221.04 1255.58 216.56C1255.28 214.768 1255.62 213.36 1256.6 212.336C1257.63 211.312 1259.04 210.8 1260.83 210.8C1262.58 210.8 1263.84 211.248 1264.6 212.144C1265.41 212.997 1266.08 214.299 1266.59 216.048C1267.1 217.328 1267.95 218.181 1269.15 218.608C1270.39 219.035 1272.18 219.248 1274.52 219.248H1295.52C1298.84 219.248 1301.08 218.715 1302.24 217.648C1303.39 216.539 1303.96 214.256 1303.96 210.8C1303.96 207.387 1303.39 205.125 1302.24 204.016C1301.08 202.907 1298.84 202.352 1295.52 202.352H1274.91C1268.76 202.352 1264.13 200.795 1261.02 197.68C1257.91 194.565 1256.35 189.936 1256.35 183.792C1256.35 177.52 1257.86 172.848 1260.89 169.776C1263.96 166.661 1268.64 165.104 1274.91 165.104H1294.88C1304.9 165.104 1310.83 169.328 1312.67 177.776C1313.01 179.568 1312.67 180.955 1311.64 181.936C1310.62 182.917 1309.21 183.408 1307.42 183.408C1305.76 183.408 1304.52 182.981 1303.71 182.128C1302.9 181.232 1302.26 179.995 1301.79 178.416C1301.28 177.392 1300.49 176.709 1299.42 176.368C1298.4 176.027 1296.88 175.856 1294.88 175.856H1274.91C1271.67 175.856 1269.55 176.347 1268.57 177.328C1267.59 178.309 1267.1 180.464 1267.1 183.792C1267.1 186.864 1267.61 188.933 1268.64 190C1269.7 191.067 1271.79 191.6 1274.91 191.6H1295.52C1301.92 191.6 1306.72 193.2 1309.92 196.4C1313.12 199.6 1314.72 204.4 1314.72 210.8C1314.72 217.243 1313.12 222.064 1309.92 225.264C1306.72 228.421 1301.92 230 1295.52 230H1274.52ZM1333.45 154.608C1329.39 154.608 1327.37 152.56 1327.37 148.464V144.688C1327.37 140.677 1329.39 138.672 1333.45 138.672H1337.16C1341.04 138.672 1342.98 140.677 1342.98 144.688V148.464C1342.98 152.56 1341.04 154.608 1337.16 154.608H1333.45ZM1335.24 230C1331.65 230 1329.86 228.208 1329.86 224.624V170.48C1329.86 166.896 1331.65 165.104 1335.24 165.104C1338.82 165.104 1340.61 166.896 1340.61 170.48V224.624C1340.61 228.208 1338.82 230 1335.24 230ZM1381.57 230C1373.08 230 1366.77 227.952 1362.63 223.856C1358.53 219.76 1356.48 213.488 1356.48 205.04V190.192C1356.48 181.616 1358.53 175.301 1362.63 171.248C1366.77 167.152 1373.08 165.104 1381.57 165.104H1392.07C1400.6 165.104 1406.92 167.152 1411.01 171.248C1415.11 175.344 1417.16 181.659 1417.16 190.192V204.912C1417.16 213.403 1415.11 219.717 1411.01 223.856C1406.92 227.952 1400.6 230 1392.07 230H1381.57ZM1367.24 205.04C1367.24 210.544 1368.24 214.299 1370.24 216.304C1372.25 218.267 1376.03 219.248 1381.57 219.248H1392.07C1397.66 219.248 1401.43 218.245 1403.4 216.24C1405.4 214.235 1406.4 210.459 1406.4 204.912V190.192C1406.4 184.603 1405.4 180.827 1403.4 178.864C1401.43 176.859 1397.66 175.856 1392.07 175.856H1381.57C1377.86 175.856 1374.96 176.283 1372.87 177.136C1370.82 177.947 1369.37 179.397 1368.52 181.488C1367.66 183.536 1367.24 186.437 1367.24 190.192V205.04ZM1438.38 230C1434.79 230 1433 228.208 1433 224.624V170.48C1433 166.896 1434.79 165.104 1438.38 165.104C1441.96 165.104 1443.75 166.896 1443.75 170.48V172.592C1448.28 167.6 1454.93 165.104 1463.72 165.104H1467.31C1475.84 165.104 1482.15 167.152 1486.25 171.248C1490.35 175.344 1492.39 181.659 1492.39 190.192V224.624C1492.39 228.208 1490.6 230 1487.02 230C1483.43 230 1481.64 228.208 1481.64 224.624V190.192C1481.64 184.603 1480.62 180.827 1478.57 178.864C1476.56 176.859 1472.81 175.856 1467.31 175.856H1463.72C1458.6 175.856 1454.14 176.453 1450.35 177.648C1446.55 178.8 1444.35 180.635 1443.75 183.152V224.624C1443.75 228.208 1441.96 230 1438.38 230Z" fill="white"/>
<path d="M85.4626 42C93.7307 42.0132 108.095 42.432 120.36 52.461C133.768 63.4247 142.362 83.7163 142.362 118.768H124.298C124.298 86.3034 116.325 72.8361 109.091 66.9204C101.531 60.7387 92.283 60.5018 83.8926 60.5018C75.5023 60.5018 66.2548 60.7387 58.6948 66.9204C51.4603 72.8361 43.4869 86.3032 43.4869 118.768H25.4237C25.4237 83.7164 34.0172 63.4247 47.4254 52.461C59.6903 42.4321 74.0546 42.0132 82.3227 42H85.4626Z" fill="#00FF38"/>
<path d="M155.333 116.09H10.6667C6.98477 116.09 4 119.075 4 122.757V267.424C4 271.106 6.98477 274.09 10.6667 274.09H155.333C159.015 274.09 162 271.106 162 267.424V122.757C162 119.075 159.015 116.09 155.333 116.09Z" fill="#00FF38"/>
<path fill-rule="evenodd" clip-rule="evenodd" d="M104.611 274.09L162 210.354V238.251L129.73 274.09H104.611Z" fill="#00A625"/>
<path fill-rule="evenodd" clip-rule="evenodd" d="M57.9447 274.09L162 158.526V186.422L83.0633 274.09H57.9447Z" fill="#00A625"/>
</svg>
